<?xml version="1.0" encoding="UTF-8" standalone="no"?>
<?xml-stylesheet type="text/css" href="../../css/main.css" ?><!-- Created with Inkscape (http://www.inkscape.org/) -->

<svg
   xmlns:dc="http://purl.org/dc/elements/1.1/"
   xmlns:cc="http://creativecommons.org/ns#"
   xmlns:rdf="http://www.w3.org/1999/02/22-rdf-syntax-ns#"
   xmlns:svg="http://www.w3.org/2000/svg"
   xmlns="http://www.w3.org/2000/svg"
   xmlns:sodipodi="http://sodipodi.sourceforge.net/DTD/sodipodi-0.dtd"
   xmlns:inkscape="http://www.inkscape.org/namespaces/inkscape"
   inkscape:export-ydpi="202"
   inkscape:export-xdpi="202"
   inkscape:export-filename="C:\Users\Famille SL\Desktop\Charly\Charly PrOgrAmMatIoN\Plant\Plant Logo.png"
   sodipodi:docname="plant_logo.svg"
   inkscape:version="1.0 (4035a4fb49, 2020-05-01)"
   id="svg8"
   version="1.1"
   viewBox="0 0 211.66667 89.958319"
   height="89.958321mm"
   width="211.66667mm">
  <title
     id="title63">Plant logo</title>
  <defs
     id="defs2">
    <inkscape:path-effect
       fuse_tolerance="0"
       vertical_pattern="false"
       prop_units="false"
       tang_offset="0"
       normal_offset="0"
       spacing="0"
       scale_y_rel="false"
       prop_scale="0.75"
       copytype="single_stretched"
       pattern="m 64.822913,192.48959 c 3.96875,0 7.9375,2.64583 7.9375,2.64583 0,0 -3.96875,2.64584 -7.937502,2.64584 z"
       is_visible="true"
       id="path-effect1178"
       effect="skeletal" />
    <inkscape:path-effect
       is_visible="true"
       id="path-effect1170"
       effect="spiro" />
    <inkscape:path-effect
       fuse_tolerance="0"
       vertical_pattern="false"
       prop_units="false"
       tang_offset="0"
       normal_offset="0"
       spacing="0"
       scale_y_rel="false"
       prop_scale="0.9"
       copytype="single_stretched"
       pattern="m 64.822913,192.48959 c 3.96875,0 7.9375,2.64583 7.9375,2.64583 0,0 -3.96875,2.64584 -7.937502,2.64584 z"
       is_visible="true"
       id="path-effect1166"
       effect="skeletal" />
    <inkscape:path-effect
       is_visible="true"
       id="path-effect1158"
       effect="spiro" />
    <inkscape:path-effect
       fuse_tolerance="0"
       vertical_pattern="false"
       prop_units="false"
       tang_offset="0"
       normal_offset="0"
       spacing="0"
       scale_y_rel="false"
       prop_scale="1"
       copytype="single_stretched"
       pattern="m 64.822913,192.48959 c 3.96875,0 7.9375,2.64583 7.9375,2.64583 0,0 -3.96875,2.64584 -7.937502,2.64584 z"
       is_visible="true"
       id="path-effect1154"
       effect="skeletal" />
    <inkscape:path-effect
       is_visible="true"
       id="path-effect1146"
       effect="spiro" />
    <inkscape:path-effect
       fuse_tolerance="0"
       vertical_pattern="false"
       prop_units="false"
       tang_offset="0"
       normal_offset="0"
       spacing="0"
       scale_y_rel="false"
       prop_scale="0.85"
       copytype="single_stretched"
       pattern="m 64.822915,192.48959 c 3.96875,0 7.9375,2.64583 7.9375,2.64583 0,0 -3.96875,2.64584 -7.937502,2.64584 z"
       is_visible="true"
       id="path-effect1106"
       effect="skeletal" />
    <inkscape:path-effect
       is_visible="true"
       id="path-effect1098"
       effect="spiro" />
    <inkscape:path-effect
       fuse_tolerance="0"
       vertical_pattern="false"
       prop_units="false"
       tang_offset="0"
       normal_offset="0"
       spacing="0"
       scale_y_rel="false"
       prop_scale="0.75"
       copytype="single_stretched"
       pattern="m 64.822915,192.48959 c 3.96875,0 7.9375,2.64583 7.9375,2.64583 0,0 -3.96875,2.64584 -7.937502,2.64584 z"
       is_visible="true"
       id="path-effect1094"
       effect="skeletal" />
    <inkscape:path-effect
       is_visible="true"
       id="path-effect1086"
       effect="spiro" />
    <inkscape:path-effect
       fuse_tolerance="0"
       vertical_pattern="false"
       prop_units="false"
       tang_offset="0"
       normal_offset="0"
       spacing="0"
       scale_y_rel="false"
       prop_scale="1"
       copytype="single_stretched"
       pattern="m 64.822915,192.48959 c 3.96875,0 7.9375,2.64583 7.9375,2.64583 0,0 -3.96875,2.64584 -7.937502,2.64584 z"
       is_visible="true"
       id="path-effect1082"
       effect="skeletal" />
    <inkscape:path-effect
       is_visible="true"
       id="path-effect1074"
       effect="spiro" />
    <inkscape:path-effect
       fuse_tolerance="0"
       vertical_pattern="false"
       prop_units="false"
       tang_offset="0"
       normal_offset="0"
       spacing="0"
       scale_y_rel="false"
       prop_scale="0.75"
       copytype="single_stretched"
       pattern="m 64.822915,192.48959 c 3.96875,0 7.9375,2.64583 7.9375,2.64583 0,0 -3.96875,2.64584 -7.937502,2.64584 z"
       is_visible="true"
       id="path-effect1070"
       effect="skeletal" />
    <inkscape:path-effect
       is_visible="true"
       id="path-effect1062"
       effect="spiro" />
    <inkscape:path-effect
       fuse_tolerance="0"
       vertical_pattern="false"
       prop_units="false"
       tang_offset="0"
       normal_offset="0"
       spacing="0"
       scale_y_rel="false"
       prop_scale="0.9"
       copytype="single_stretched"
       pattern="m 64.822915,192.48959 c 3.96875,0 7.9375,2.64583 7.9375,2.64583 0,0 -3.96875,2.64584 -7.937502,2.64584 z"
       is_visible="true"
       id="path-effect1058"
       effect="skeletal" />
    <inkscape:path-effect
       is_visible="true"
       id="path-effect1050"
       effect="spiro" />
    <inkscape:path-effect
       fuse_tolerance="0"
       vertical_pattern="false"
       prop_units="false"
       tang_offset="0"
       normal_offset="0"
       spacing="0"
       scale_y_rel="false"
       prop_scale="0.75"
       copytype="single_stretched"
       pattern="m 64.822915,192.48959 c 3.96875,0 7.9375,2.64583 7.9375,2.64583 0,0 -3.96875,2.64584 -7.937502,2.64584 z"
       is_visible="true"
       id="path-effect1046"
       effect="skeletal" />
    <inkscape:path-effect
       is_visible="true"
       id="path-effect1038"
       effect="spiro" />
    <inkscape:path-effect
       fuse_tolerance="0"
       vertical_pattern="false"
       prop_units="false"
       tang_offset="0"
       normal_offset="0"
       spacing="0"
       scale_y_rel="false"
       prop_scale="1"
       copytype="single_stretched"
       pattern="m 64.822915,192.48959 c 3.96875,0 7.9375,2.64583 7.9375,2.64583 0,0 -3.96875,2.64584 -7.937502,2.64584 z"
       is_visible="true"
       id="path-effect1034"
       effect="skeletal" />
    <inkscape:path-effect
       is_visible="true"
       id="path-effect1026"
       effect="spiro" />
    <inkscape:path-effect
       fuse_tolerance="0"
       vertical_pattern="false"
       prop_units="false"
       tang_offset="0"
       normal_offset="0"
       spacing="0"
       scale_y_rel="false"
       prop_scale="0.9"
       copytype="single_stretched"
       pattern="m 64.822915,192.48959 c 3.96875,0 7.9375,2.64583 7.9375,2.64583 0,0 -3.96875,2.64584 -7.937502,2.64584 z"
       is_visible="true"
       id="path-effect1022"
       effect="skeletal" />
    <inkscape:path-effect
       is_visible="true"
       id="path-effect1014"
       effect="spiro" />
    <inkscape:path-effect
       fuse_tolerance="0"
       vertical_pattern="false"
       prop_units="false"
       tang_offset="0"
       normal_offset="0"
       spacing="0"
       scale_y_rel="false"
       prop_scale="0.75"
       copytype="single_stretched"
       pattern="m 64.822915,192.48959 c 3.96875,0 7.9375,2.64583 7.9375,2.64583 0,0 -3.96875,2.64584 -7.937502,2.64584 z"
       is_visible="true"
       id="path-effect1010"
       effect="skeletal" />
    <inkscape:path-effect
       is_visible="true"
       id="path-effect1002"
       effect="spiro" />
    <inkscape:path-effect
       fuse_tolerance="0"
       vertical_pattern="false"
       prop_units="false"
       tang_offset="0"
       normal_offset="0"
       spacing="0"
       scale_y_rel="false"
       prop_scale="0.26458333"
       copytype="single_stretched"
       pattern="m 64.822915,192.48959 c 3.96875,0 7.9375,2.64583 7.9375,2.64583 0,0 -3.96875,2.64584 -7.937502,2.64584 z"
       is_visible="true"
       id="path-effect998"
       effect="skeletal" />
    <inkscape:path-effect
       is_visible="true"
       id="path-effect990"
       effect="spiro" />
    <inkscape:path-effect
       fuse_tolerance="0"
       vertical_pattern="false"
       prop_units="false"
       tang_offset="0"
       normal_offset="0"
       spacing="0"
       scale_y_rel="false"
       prop_scale="0.6"
       copytype="single_stretched"
       pattern="m 64.822915,192.48959 c 3.96875,0 7.9375,2.64583 7.9375,2.64583 0,0 -3.96875,2.64584 -7.937502,2.64584 z"
       is_visible="true"
       id="path-effect986"
       effect="skeletal" />
    <inkscape:path-effect
       is_visible="true"
       id="path-effect978"
       effect="spiro" />
    <inkscape:path-effect
       fuse_tolerance="0"
       vertical_pattern="false"
       prop_units="false"
       tang_offset="0"
       normal_offset="0"
       spacing="0"
       scale_y_rel="false"
       prop_scale="1"
       copytype="single_stretched"
       pattern="m 64.822915,192.48959 c 3.96875,0 7.9375,2.64583 7.9375,2.64583 0,0 -3.96875,2.64584 -7.937502,2.64584 z"
       is_visible="true"
       id="path-effect974"
       effect="skeletal" />
    <inkscape:path-effect
       is_visible="true"
       id="path-effect966"
       effect="spiro" />
    <inkscape:path-effect
       fuse_tolerance="0"
       vertical_pattern="false"
       prop_units="false"
       tang_offset="0"
       normal_offset="0"
       spacing="0"
       scale_y_rel="false"
       prop_scale="0.75"
       copytype="single_stretched"
       pattern="m 64.822915,192.48959 c 3.96875,0 7.9375,2.64583 7.9375,2.64583 0,0 -3.96875,2.64584 -7.937502,2.64584 z"
       is_visible="true"
       id="path-effect962"
       effect="skeletal" />
    <inkscape:path-effect
       is_visible="true"
       id="path-effect954"
       effect="spiro" />
    <inkscape:path-effect
       fuse_tolerance="0"
       vertical_pattern="false"
       prop_units="false"
       tang_offset="0"
       normal_offset="0"
       spacing="0"
       scale_y_rel="false"
       prop_scale="0.75"
       copytype="single_stretched"
       pattern="m 64.822915,192.48959 c 3.96875,0 7.9375,2.64583 7.9375,2.64583 0,0 -3.96875,2.64584 -7.937502,2.64584 z"
       is_visible="true"
       id="path-effect950"
       effect="skeletal" />
    <inkscape:path-effect
       is_visible="true"
       id="path-effect942"
       effect="spiro" />
    <inkscape:path-effect
       vertical="false"
       scale_y_rel="false"
       prop_scale="1"
       bendpath="M 34.39583,80.041673 79.374996,90.625007"
       is_visible="true"
       id="path-effect917"
       effect="bend_path" />
    <inkscape:path-effect
       fuse_tolerance="0"
       vertical_pattern="false"
       prop_units="false"
       tang_offset="0"
       normal_offset="0"
       spacing="0"
       scale_y_rel="false"
       prop_scale="1"
       copytype="single_stretched"
       pattern="m 64.822915,192.48959 c 3.96875,0 7.9375,2.64583 7.9375,2.64583 0,0 -3.96875,2.64584 -7.937502,2.64584 z"
       is_visible="true"
       id="path-effect907"
       effect="skeletal" />
    <inkscape:path-effect
       fuse_tolerance="0"
       vertical_pattern="false"
       prop_units="false"
       tang_offset="0"
       normal_offset="0"
       spacing="0"
       scale_y_rel="false"
       prop_scale="0.26458333"
       copytype="single_stretched"
       pattern="m 64.822915,192.48959 c 3.96875,0 7.9375,2.64583 7.9375,2.64583 0,0 -3.96875,2.64584 -7.937502,2.64584 z"
       is_visible="true"
       id="path-effect888"
       effect="skeletal" />
    <inkscape:path-effect
       vertical="false"
       scale_y_rel="false"
       prop_scale="1"
       bendpath="M 0,148.83333 H 209.02083"
       is_visible="true"
       id="path-effect850"
       effect="bend_path" />
    <inkscape:path-effect
       fuse_tolerance="0"
       vertical_pattern="false"
       prop_units="false"
       tang_offset="0"
       normal_offset="0"
       spacing="0"
       scale_y_rel="false"
       prop_scale="0.26458333"
       copytype="single_stretched"
       pattern="M 0,5 C 0,2.24 2.24,0 5,0 7.76,0 10,2.24 10,5 10,7.76 7.76,10 5,10 2.24,10 0,7.76 0,5 Z"
       is_visible="true"
       id="path-effect825"
       effect="skeletal" />
  </defs>
  <sodipodi:namedview
     inkscape:document-rotation="0"
     inkscape:window-maximized="1"
     inkscape:window-y="-8"
     inkscape:window-x="-8"
     inkscape:window-height="1017"
     inkscape:window-width="1920"
     showgrid="true"
     inkscape:current-layer="layer1"
     inkscape:document-units="mm"
     inkscape:cy="191.96184"
     inkscape:cx="222.39534"
     inkscape:zoom="1"
     inkscape:pageshadow="2"
     inkscape:pageopacity="0"
     borderopacity="1.0"
     bordercolor="#666666"
     pagecolor="#121212"
     id="base">
    <inkscape:grid
       originy="-351.89588"
       originx="-95.249997"
       id="grid815"
       type="xygrid" />
  </sodipodi:namedview>
  <metadata
     id="metadata5">
    <rdf:RDF>
      <cc:Work
         rdf:about="">
        <dc:format>image/svg+xml</dc:format>
        <dc:type
           rdf:resource="http://purl.org/dc/dcmitype/StillImage" />
        <dc:title>Plant logo</dc:title>
        <dc:date>2021</dc:date>
        <dc:creator>
          <cc:Agent>
            <dc:title>Picorims(picorims.contact@gmail.com)</dc:title>
          </cc:Agent>
        </dc:creator>
        <dc:rights>
          <cc:Agent>
            <dc:title>Plant logo by Picorims(picorims.contact@gmail.com) is licensed under CC BY-NC-ND 4.0. To view a copy of this license, visit https://creativecommons.org/licenses/by-nc-nd/4.0</dc:title>
          </cc:Agent>
        </dc:rights>
        <cc:license
           rdf:resource="http://creativecommons.org/licenses/by-nc-nd/4.0/" />
      </cc:Work>
      <cc:License
         rdf:about="http://creativecommons.org/licenses/by-nc-nd/4.0/">
        <cc:permits
           rdf:resource="http://creativecommons.org/ns#Reproduction" />
        <cc:permits
           rdf:resource="http://creativecommons.org/ns#Distribution" />
        <cc:requires
           rdf:resource="http://creativecommons.org/ns#Notice" />
        <cc:requires
           rdf:resource="http://creativecommons.org/ns#Attribution" />
        <cc:prohibits
           rdf:resource="http://creativecommons.org/ns#CommercialUse" />
      </cc:License>
    </rdf:RDF>
  </metadata>
  <g
     transform="translate(2.6458383,-72.104181)"
     id="layer1"
     inkscape:groupmode="layer"
     inkscape:label="Calque 1">
    <path
       sodipodi:nodetypes="ccccc"
       inkscape:connector-curvature="0"
       id="path831"
       d="m 47.625,191.16667 c 6.614583,0 10.583333,5.29167 10.583333,5.29167 0,0 -3.96875,5.29166 -10.583333,5.29166 -6.614583,0 -10.583334,-5.29166 -10.583334,-5.29166 0,0 3.968751,-5.29167 10.583334,-5.29167"
       style="fill:#ffffff;fill-opacity:1;fill-rule:evenodd;stroke:none;stroke-width:0.26458332px;stroke-linecap:butt;stroke-linejoin:miter;stroke-opacity:1" />
    <path
       inkscape:label="#path831-6"
       inkscape:export-ydpi="202"
       inkscape:export-xdpi="202"
       inkscape:export-filename="C:\Users\Famille SL\Desktop\Charly\Charly PrOgrAmMatIoN\Plant\Plant Logo.png"
       transform="translate(-0.335414,2.3184448e-5)"
       inkscape:original-d="m 47.625001,185.875 c 6.614583,0 10.583333,5.29167 10.583333,5.29167 0,0 -3.96875,5.29166 -10.583333,5.29166 -6.614583,0 -10.583334,-5.29166 -10.583334,-5.29166 0,0 3.968751,-5.29167 10.583334,-5.29167"
       inkscape:path-effect="#path-effect850"
       sodipodi:nodetypes="ccccc"
       inkscape:connector-curvature="0"
       id="title_base"
       d="m 103.52292,143.54166 c 65.31901,0 104.51041,5.29167 104.51041,5.29167 0,0 -39.1914,5.29166 -104.51041,5.29166 -65.319005,0 -104.51041997,-5.29166 -104.51041997,-5.29166 0,0 39.19141497,-5.29167 104.51041997,-5.29167 z"
       style="fill:#ffffff;fill-opacity:1;fill-rule:evenodd;stroke:none;stroke-width:0.26458332px;stroke-linecap:butt;stroke-linejoin:miter;stroke-opacity:1" />
    <path
       sodipodi:nodetypes="cccc"
       inkscape:connector-curvature="0"
       id="path869"
       d="m 64.822914,192.48959 c 3.96875,0 7.9375,2.64583 7.9375,2.64583 0,0 -3.96875,2.64584 -7.937502,2.64584 z"
       style="fill:#ffffff;fill-opacity:1;fill-rule:evenodd;stroke:none;stroke-width:0.26458332px;stroke-linecap:butt;stroke-linejoin:miter;stroke-opacity:1" />
    <path
       inkscape:label="#path940"
       inkscape:export-ydpi="202"
       inkscape:export-xdpi="202"
       inkscape:export-filename="C:\Users\Famille SL\Desktop\Charly\Charly PrOgrAmMatIoN\Plant\Plant Logo.png"
       transform="translate(-13.892214,0.07961572)"
       inkscape:original-d="m 26.458329,148.83334 c 2.65e-4,-12.34749 2.65e-4,-24.69471 0,-37.04167 -2.64e-4,-12.346954 2.65e-4,-3.52804 0,-5.29166 -2.64e-4,-1.76363 10.583598,10.58307 15.875,15.875 5.291402,5.29193 -7.055289,-7.05582 -10.583333,-10.58334"
       inkscape:path-effect="#path-effect942;#path-effect950"
       inkscape:connector-curvature="0"
       id="p_stem1"
       d="m 24.475549,148.75376 c 0.500466,-12.4755 0.543879,-24.77117 0.155296,-36.88878 -0.06093,-1.77046 -0.123963,-3.60887 0.05012,-5.51809 0.378379,-4.00653 1.87835,-7.817565 4.239036,-10.936646 2.431683,-3.208274 5.741751,-5.623265 9.386388,-6.956663 3.790612,-1.38368 7.870952,-1.569772 11.602471,-0.659209 3.923635,0.960545 7.378545,3.115432 9.887366,5.955869 2.676685,3.035042 4.219367,6.784449 4.582105,10.490039 0.393004,4.04463 -0.61756,7.94858 -2.505509,11.05359 -2.135786,3.50745 -5.327154,5.93306 -8.602634,7.17556 -3.952858,1.497 -7.939529,1.29184 -11.047893,0.27033 -4.794963,-1.5801 -7.497477,-4.88168 -8.863607,-7.18589 -1.370314,-2.31126 -1.608696,-3.7622 -1.608696,-3.7622 0,0 0.321114,1.43733 1.788727,3.64925 1.461568,2.20281 4.286668,5.28376 8.905641,6.56934 3.00276,0.83866 6.765844,0.84668 10.362427,-0.69296 2.979112,-1.27321 5.810951,-3.63539 7.611997,-6.87222 1.595221,-2.86198 2.358402,-6.41266 1.883378,-9.96767 -0.432507,-3.2572 -1.921368,-6.518709 -4.326144,-9.072096 -2.250166,-2.393389 -5.321208,-4.16593 -8.694978,-4.887771 -3.208142,-0.689369 -6.710768,-0.422691 -9.880265,0.827739 -3.050402,1.20038 -5.811551,3.32759 -7.790527,6.061769 -1.92373,2.653199 -3.120079,5.907059 -3.374554,9.246079 -0.128264,1.60037 -0.03151,3.28203 0.05012,5.06523 0.586678,12.19553 0.659681,24.62139 0.155298,37.19452 -1.321854,-0.053 -2.643708,-0.10608 -3.965562,-0.15912"
       style="fill:#ffffff;fill-rule:evenodd;stroke:none;stroke-width:0.26458332px;stroke-linecap:butt;stroke-linejoin:miter;stroke-opacity:1;fill-opacity:1" />
    <path
       inkscape:label="#path952"
       inkscape:export-ydpi="202"
       inkscape:export-xdpi="202"
       inkscape:export-filename="C:\Users\Famille SL\Desktop\Charly\Charly PrOgrAmMatIoN\Plant\Plant Logo.png"
       transform="translate(-23.757113,-0.53853893)"
       inkscape:original-d="m 74.083329,146.18751 c 1.764154,-14.11138 3.528044,-28.22249 5.291666,-42.33334 1.763626,-14.110843 -3.527512,-12.347484 -5.291666,-18.52083 -1.764152,-6.173347 2.64e-4,-3.528043 0,-5.291667 -2.65e-4,-1.763624 3.528044,1.763624 5.291666,2.645833"
       inkscape:path-effect="#path-effect954;#path-effect962"
       inkscape:connector-curvature="0"
       id="l_stem1"
       d="m 72.289166,145.33973 c 6.503028,-13.75596 7.911243,-28.49804 5.819408,-41.23845 0,0 -10e-7,0 -10e-7,0 -1.04454,-6.399614 -3.404692,-14.173187 -4.617233,-18.579214 -0.265265,-0.945139 -0.499341,-1.853556 -0.538967,-2.821692 -0.05034,-1.072859 0.222714,-2.103549 0.810283,-2.88612 0.522731,-0.679334 1.25133,-1.087517 1.962937,-1.23595 0.837347,-0.173247 1.633464,0.005 2.229141,0.335142 0.769592,0.427662 1.21764,1.093611 1.425273,1.658119 0,0 0,10e-7 0,10e-7 0.503888,1.372499 -0.005,2.115946 -0.005,2.115946 0,0 0.409174,-0.794252 -0.187621,-2.034874 -10e-7,-10e-7 -10e-7,-10e-7 -10e-7,-2e-6 -0.24346,-0.506943 -0.711714,-1.065478 -1.415182,-1.374109 -0.541968,-0.238621 -1.234933,-0.320859 -1.900915,-0.117885 -0.564991,0.170965 -1.117301,0.557049 -1.467281,1.108446 -0.413472,0.62916 -0.530109,1.467471 -0.435527,2.356274 0.09219,0.815268 0.377354,1.59884 0.706841,2.519248 1.596468,4.389718 4.448697,11.754742 5.966101,18.46244 0,0 10e-7,1e-5 10e-7,1e-5 2.947767,13.08822 2.155696,28.77699 -4.763913,43.42821 -1.196113,-0.56518 -2.392226,-1.13036 -3.588339,-1.69554"
       style="fill:#ffffff;fill-rule:evenodd;stroke:none;stroke-width:0.26458332px;stroke-linecap:butt;stroke-linejoin:miter;stroke-opacity:1;fill-opacity:1" />
    <path
       inkscape:label="#path964"
       inkscape:export-ydpi="202"
       inkscape:export-xdpi="202"
       inkscape:export-filename="C:\Users\Famille SL\Desktop\Charly\Charly PrOgrAmMatIoN\Plant\Plant Logo.png"
       transform="translate(-23.757113,-0.53853893)"
       inkscape:original-d="m 76.729162,146.18751 c 0.882211,-1.76416 1.764154,-3.52805 2.645833,-5.29167 0.881682,-1.76362 8.819711,-1.76415 13.229167,-2.64583 4.409458,-0.88168 7.055821,1.76362 10.583338,2.64583 3.52751,0.88221 -1.76363,-3.52804 -2.64584,-5.29167"
       inkscape:path-effect="#path-effect966;#path-effect974"
       inkscape:connector-curvature="0"
       id="l_stem2"
       d="m 74.138716,145.64896 c 0.505546,-2.42393 1.660659,-4.65531 3.306655,-6.45347 2.059772,-2.24897 4.78175,-3.68339 7.631443,-4.15975 3.045905,-0.50159 6.020425,0.14784 8.389828,1.54734 0,0 2e-6,0 2e-6,0 2.126665,1.28331 3.414013,2.75294 4.780933,3.54112 0.766143,0.43818 1.505658,0.7409 2.229153,0.78353 0.79282,0.0462 1.56687,-0.14796 2.07502,-0.59265 0.38011,-0.31324 0.65126,-0.75728 0.77766,-1.21124 0.14927,-0.53026 0.10793,-1.09072 -0.0545,-1.55902 -0.20732,-0.60135 -0.60902,-1.06136 -1.00741,-1.35346 -0.95419,-0.70087 -1.72588,-0.58718 -1.72588,-0.58718 0,0 0.70955,-0.34376 1.95386,0.175 0.53433,0.22323 1.14347,0.64236 1.59398,1.35837 0.35471,0.56544 0.59643,1.30692 0.55417,2.1492 -0.0377,0.72422 -0.28945,1.50617 -0.82041,2.18984 -0.74249,0.92368 -1.90375,1.58967 -3.24581,1.72869 -1.179841,0.12564 -2.394802,-0.068 -3.526628,-0.51546 -2.003979,-0.78423 -3.704231,-2.12546 -5.309127,-2.77288 10e-7,0 -2e-6,0 -2e-6,0 -1.74021,-0.72719 -3.826496,-0.88024 -5.73574,-0.36298 -1.791178,0.47761 -3.488751,1.5779 -4.701325,3.04223 -0.976934,1.17822 -1.674658,2.62922 -1.985008,4.12986 -1.726965,-0.35903 -3.453929,-0.71806 -5.180894,-1.07709 z"
       style="fill:#ffffff;fill-rule:evenodd;stroke:none;stroke-width:0.26458332px;stroke-linecap:butt;stroke-linejoin:miter;stroke-opacity:1;fill-opacity:1" />
    <path
       inkscape:label="#path976"
       inkscape:export-ydpi="202"
       inkscape:export-xdpi="202"
       inkscape:export-filename="C:\Users\Famille SL\Desktop\Charly\Charly PrOgrAmMatIoN\Plant\Plant Logo.png"
       transform="translate(-21.943382,-0.41405419)"
       inkscape:original-d="m 103.1875,146.18751 c 3.52804,-14.11138 7.05582,-28.22249 10.58333,-42.33334 3.52751,-14.110843 5.29193,-8.819707 7.9375,-13.229164 2.64557,-4.409457 3.52804,1.763625 5.29166,2.645835"
       inkscape:path-effect="#path-effect978;#path-effect986"
       inkscape:connector-curvature="0"
       id="a_stem1"
       d="m 101.7182,145.58642 c 6.12862,-14.98095 9.5127,-29.16662 11.19579,-41.81964 0,0 0,-1e-5 0,-1e-5 0.4041,-3.15202 0.75411,-5.837036 1.9875,-8.376453 0,-10e-7 0,-2e-6 0,-3e-6 0.69792,-1.428263 1.62994,-2.60714 2.71549,-3.467337 1.29302,-1.025102 2.76993,-1.518665 4.07232,-1.564094 1.25023,-0.04085 2.30869,0.308789 3.08913,0.740505 1.82171,1.008136 2.22156,2.171452 2.22156,2.171452 0,0 -0.52243,-1.111383 -2.34492,-1.924741 -0.76861,-0.343193 -1.7924,-0.58487 -2.92771,-0.454975 -1.18354,0.132494 -2.45276,0.683324 -3.55249,1.689385 -0.9164,0.838512 -1.66047,1.957015 -2.2073,3.290354 0,0 0,3e-6 0,3e-6 -0.98721,2.388402 -1.09601,4.869004 -1.33991,8.070694 0,0 0,0 0,0 -0.91303,12.76856 -3.74128,27.6188 -9.97085,42.84703 -0.97954,-0.40073 -1.95908,-0.80145 -2.93861,-1.20217"
       style="fill:#ffffff;fill-rule:evenodd;stroke:none;stroke-width:0.26458332px;stroke-linecap:butt;stroke-linejoin:miter;stroke-opacity:1;fill-opacity:1" />
    <path
       inkscape:label="#path1000"
       inkscape:export-ydpi="202"
       inkscape:export-xdpi="202"
       inkscape:export-filename="C:\Users\Famille SL\Desktop\Charly\Charly PrOgrAmMatIoN\Plant\Plant Logo.png"
       sodipodi:nodetypes="csscc"
       transform="translate(-21.943382,-0.41405419)"
       inkscape:original-d="m 137.58333,146.18751 c -2.64557,-4.40999 -5.2914,-8.81971 -7.9375,-13.22917 -2.6461,-4.40946 -5.68827,-27.29644 -8.33437,-44.053126 -2.6461,-16.756679 1.37759,-5.395961 1.81829,-6.718614 0.44071,-1.322652 2.20513,0.440708 2.64583,1.322917"
       inkscape:path-effect="#path-effect1002;#path-effect1010"
       inkscape:connector-curvature="0"
       id="a_stem3"
       d="m 136.05916,147.45821 c -3.47643,-4.17006 -6.21789,-8.85773 -8.14628,-13.79588 -2.91736,-7.52183 -3.94045,-15.47519 -4.58367,-22.3048 -1.00075,-10.43754 -1.12399,-15.128419 -2.5361,-22.326663 0,0 0,-3e-6 0,-3e-6 -0.29843,-1.459234 -0.53382,-2.719441 -0.30759,-4.029119 0,0 0,-2e-6 0,-2e-6 0.13184,-0.745229 0.42802,-1.401456 0.84243,-1.911341 0.50022,-0.615671 1.15639,-0.963106 1.76703,-1.06636 0,0 10e-6,-10e-7 10e-6,-10e-7 0.6544,-0.107959 1.22471,0.05728 1.62751,0.284356 0.95965,0.541676 1.05309,1.201123 1.05309,1.201123 0,0 -0.17869,-0.636781 -1.129,-1.049314 -0.38797,-0.168686 -0.92469,-0.262485 -1.48207,-0.111055 0,0 -10e-6,10e-7 -10e-6,10e-7 -0.52009,0.138672 -1.0476,0.508308 -1.41601,1.055296 -0.31193,0.462926 -0.5001,1.043295 -0.55846,1.693371 0,0 0,3e-6 0,3e-6 -0.10993,1.159555 0.23305,2.231966 0.63976,3.681737 10e-6,0 10e-6,3e-6 10e-6,3e-6 1.96155,6.787963 2.66427,12.288838 4.21637,22.236418 1.05753,6.70267 2.4102,14.3836 5.3326,21.23837 1.91586,4.52495 4.52165,8.81598 7.7287,12.66245 -1.0161,0.84714 -2.03221,1.69427 -3.04832,2.54141 z"
       style="fill:#ffffff;fill-rule:evenodd;stroke:none;stroke-width:0.26458332px;stroke-linecap:butt;stroke-linejoin:miter;stroke-opacity:1;fill-opacity:1" />
    <path
       inkscape:label="#path1012"
       inkscape:export-ydpi="202"
       inkscape:export-xdpi="202"
       inkscape:export-filename="C:\Users\Famille SL\Desktop\Charly\Charly PrOgrAmMatIoN\Plant\Plant Logo.png"
       transform="translate(-8.5821905,-0.40790164)"
       inkscape:original-d="m 121.70833,143.54167 c -1.76362,-2.64609 -3.52751,-5.29193 -5.29167,-7.9375 -1.76415,-2.64556 -14.11084,-12.34748 -21.166665,-18.52083 -7.055818,-6.17335 -1.763622,1.76362 -2.645833,2.64583"
       inkscape:path-effect="#path-effect1014;#path-effect1022"
       inkscape:connector-curvature="0"
       id="a_stem2"
       d="m 119.9073,145.09944 c -2.23964,-2.58947 -4.08582,-5.46119 -5.50572,-8.48961 -2.57207,-5.44106 -3.72927,-10.6905 -6.31704,-14.38137 -1.55599,-2.23294 -3.38303,-3.87923 -5.42718,-4.77345 -1.21109,-0.53679 -2.42597,-0.80015 -3.562207,-0.82697 0,0 -2e-6,0 -2e-6,0 -1.438591,-0.0343 -2.686616,0.29656 -3.659146,0.76441 0,0 -10e-7,0 -10e-7,0 -2.11963,1.01667 -2.831839,2.33672 -2.831839,2.33672 0,0 0.389408,-1.45268 2.459822,-2.95493 10e-7,0 2e-6,0 2e-6,0 0.952537,-0.68967 2.282857,-1.32365 3.942009,-1.5535 10e-7,0 2e-6,0 2e-6,0 1.31102,-0.18155 2.79154,-0.11317 4.32527,0.31326 2.56893,0.72511 5.09995,2.34912 7.19936,4.7747 3.8435,4.45836 5.12438,9.0445 7.90111,14.28981 1.39836,2.6188 3.10394,5.10366 5.07761,7.38538 -1.20068,1.03852 -2.40137,2.07703 -3.60205,3.11555 z"
       style="fill:#ffffff;fill-rule:evenodd;stroke:none;stroke-width:0.26458332px;stroke-linecap:butt;stroke-linejoin:miter;stroke-opacity:1;fill-opacity:1" />
    <path
       inkscape:label="#path1072"
       inkscape:export-ydpi="202"
       inkscape:export-xdpi="202"
       inkscape:export-filename="C:\Users\Famille SL\Desktop\Charly\Charly PrOgrAmMatIoN\Plant\Plant Logo.png"
       transform="translate(-9.9111618,-0.20592893)"
       inkscape:original-d="m 129.64583,146.18751 c 3.52804,-6.17388 7.05582,-12.34749 10.58333,-18.52084 3.52752,-6.17334 -3.52751,-24.69471 -5.29167,-37.041664 -1.76415,-12.346957 -1.76362,-1.764153 -2.64583,-2.645833 -0.88221,-0.88168 -1.76362,3.527513 -2.64583,5.291668"
       inkscape:path-effect="#path-effect1074;#path-effect1082"
       inkscape:connector-curvature="0"
       id="n_stem1"
       d="m 127.7304,144.36225 c 4.74441,-4.97709 8.24073,-11.00307 10.22049,-17.34332 4.46887,-14.21001 0.68274,-27.773588 -3.68445,-35.985525 -0.31196,-0.579439 -0.58676,-1.081264 -0.93129,-1.510672 -0.36987,-0.455215 -0.77536,-0.818803 -1.23322,-1.014683 -0.56643,-0.254021 -1.22077,-0.265555 -1.76529,-0.09128 0,0 0,0 0,0 -0.64335,0.203611 -1.15672,0.662259 -1.45432,1.165031 -0.38781,0.652096 -0.43709,1.380381 -0.32945,1.934926 0.26279,1.361194 1.09297,1.754114 1.09297,1.754114 0,0 -0.89764,-0.244849 -1.38239,-1.676456 -0.20365,-0.603255 -0.26639,-1.426899 0.096,-2.274008 0.28229,-0.656711 0.83504,-1.316833 1.65754,-1.70072 0,0 0,-10e-7 0,-10e-7 0.70054,-0.32492 1.58381,-0.434633 2.46438,-0.16935 0.69435,0.217591 1.327,0.629813 1.85477,1.165711 0.49182,0.494127 0.88989,1.038928 1.27238,1.600597 5.39938,7.846179 11.05833,21.958779 6.89889,38.097799 -1.86371,7.17936 -5.57731,14.06237 -10.94615,19.69834 -1.27696,-1.21683 -2.55393,-2.43366 -3.83089,-3.6505"
       style="fill:#ffffff;fill-rule:evenodd;stroke:none;stroke-width:0.26458332px;stroke-linecap:butt;stroke-linejoin:miter;stroke-opacity:1;fill-opacity:1" />
    <path
       inkscape:label="#path1084"
       inkscape:export-ydpi="202"
       inkscape:export-xdpi="202"
       inkscape:export-filename="C:\Users\Famille SL\Desktop\Charly\Charly PrOgrAmMatIoN\Plant\Plant Logo.png"
       transform="translate(-9.9111618,-0.20592893)"
       inkscape:original-d="m 161.39583,146.18751 c -0.88168,-6.17388 -1.76362,-12.34749 -2.64584,-18.52084 -0.8822,-6.17334 -14.11084,-26.45859 -21.16666,-39.687497 -7.05582,-13.228902 2.6e-4,-3.528042 0,-5.291667"
       inkscape:path-effect="#path-effect1086;#path-effect1094"
       inkscape:connector-curvature="0"
       id="n_stem2"
       d="m 159.42217,145.98157 c 0.63033,-6.03188 -0.22145,-12.14012 -2.34709,-17.63081 -2.58971,-6.78311 -7.83683,-13.73079 -11.36775,-19.16066 -5.9332,-9.01314 -8.08505,-15.443755 -8.39918,-21.18268 -0.18317,-3.426355 0.27518,-5.319918 0.27518,-5.319918 0,0 -0.23492,1.938498 0.27517,5.263425 0.86933,5.716567 3.45185,11.290932 9.84165,19.841263 3.86927,5.11743 9.51204,11.7731 12.72475,19.19039 2.55432,5.96721 3.64432,12.69495 2.94459,19.41086 -1.31577,-0.13729 -2.63155,-0.27458 -3.94732,-0.41187"
       style="fill:#ffffff;fill-rule:evenodd;stroke:none;stroke-width:0.26458332px;stroke-linecap:butt;stroke-linejoin:miter;stroke-opacity:1;fill-opacity:1" />
    <path
       inkscape:label="#path1096"
       inkscape:export-ydpi="202"
       inkscape:export-xdpi="202"
       inkscape:export-filename="C:\Users\Famille SL\Desktop\Charly\Charly PrOgrAmMatIoN\Plant\Plant Logo.png"
       transform="translate(-9.9111618,-0.20592893)"
       inkscape:original-d="m 164.04166,146.18751 c -0.88168,-7.93777 -1.76362,-15.87527 -2.64583,-23.8125 -0.88221,-7.93724 1.76415,-21.16693 2.64583,-31.750004 0.88168,-10.583068 1.76416,-1.764153 2.64583,-2.645833 0.88169,-0.88168 1.76416,1.763624 2.64584,2.645833"
       inkscape:path-effect="#path-effect1098;#path-effect1106"
       inkscape:connector-curvature="0"
       id="n_stem3"
       d="m 161.80765,146.44636 c -0.94258,-8.13447 -1.69514,-16.22598 -2.29163,-23.87143 -0.46979,-5.94978 -0.7671,-11.11821 -0.35335,-16.36409 0.52761,-6.788807 2.2554,-11.953686 4.42025,-15.811102 0.34603,-0.623513 0.70754,-1.19387 1.18148,-1.683165 0.54125,-0.56439 1.20484,-0.918295 1.87019,-1.014586 0.9643,-0.128334 1.75591,0.321739 2.17885,0.79707 0,0 0,0 0,1e-6 1.04685,1.183099 0.51989,2.12595 0.51989,2.12595 0,0 0.34688,-0.989665 -0.72491,-1.920925 0,0 0,-10e-7 0,-10e-7 -0.42063,-0.367827 -1.1411,-0.642857 -1.86803,-0.44773 -0.50976,0.128184 -0.98037,0.483848 -1.37742,0.98664 -0.3491,0.446872 -0.59179,0.974608 -0.86258,1.607279 -1.67898,3.976045 -2.73482,8.935131 -2.70978,15.460019 0.0253,5.08133 0.68777,9.91293 1.48503,15.8648 1.01516,7.52538 2.06649,15.69703 3.00003,23.75356 -1.48934,0.17257 -2.97868,0.34514 -4.46802,0.51771 z"
       style="fill:#ffffff;fill-rule:evenodd;stroke:none;stroke-width:0.26458332px;stroke-linecap:butt;stroke-linejoin:miter;stroke-opacity:1;fill-opacity:1" />
    <ellipse
       inkscape:label="#path1108"
       ry="2.6458266"
       rx="2.6458335"
       cy="159.41667"
       cx="206.375"
       id="img_size_point2"
       style="fill:#ff0303;fill-opacity:1;stroke:none;stroke-width:0;stroke-linecap:round;stroke-linejoin:round;stroke-miterlimit:4;stroke-dasharray:none;stroke-dashoffset:0;stroke-opacity:1" />
    <ellipse
       inkscape:label="#path1108-5"
       ry="2.6458266"
       rx="2.6458335"
       cy="74.750008"
       cx="-4.7735548e-06"
       id="img_size_point1"
       style="fill:#ff0303;fill-opacity:1;stroke:none;stroke-width:0;stroke-linecap:round;stroke-linejoin:round;stroke-miterlimit:4;stroke-dasharray:none;stroke-dashoffset:0;stroke-opacity:1" />
    <path
       inkscape:label="#path1144"
       inkscape:export-ydpi="202"
       inkscape:export-xdpi="202"
       inkscape:export-filename="C:\Users\Famille SL\Desktop\Charly\Charly PrOgrAmMatIoN\Plant\Plant Logo.png"
       transform="translate(-4.5539635,0.5099657)"
       inkscape:original-d="m 179.91666,148.83338 c -1.76362,-9.70166 -3.52751,-19.40305 -5.29166,-29.10417 -1.76415,-9.70112 5.29193,-15.87526 7.9375,-23.812499 2.64557,-7.937235 -12.34696,-1.764153 -18.52084,-2.645833"
       inkscape:path-effect="#path-effect1146;#path-effect1154"
       inkscape:connector-curvature="0"
       id="t_stem1"
       d="m 178.00851,150.66625 c -4.02356,-4.19255 -6.66329,-9.53267 -7.60425,-15.13649 -0.972,-5.81941 -0.0799,-11.66578 2.21608,-16.66132 2.05352,-4.40799 4.81366,-7.81864 6.68497,-11.24955 1.01402,-1.8731 1.80083,-3.70172 2.19705,-5.56515 0.42345,-2.00789 0.42735,-3.980483 -0.10061,-5.728638 -0.50526,-1.715964 -1.49745,-3.21415 -2.70625,-4.319816 -1.39515,-1.27819 -3.08001,-2.047989 -4.685,-2.370439 -2.03187,-0.409368 -3.93638,-0.122973 -5.40113,0.401936 0,0 -1e-5,2e-6 -1e-5,2e-6 -3.42738,1.227166 -4.5677,3.234099 -4.5677,3.234099 0,0 0.83086,-2.162519 4.29436,-3.874549 0,0 0,0 0,-10e-7 1.48564,-0.733887 3.52338,-1.294829 5.86274,-1.079277 1.85166,0.171512 3.89148,0.843152 5.71358,2.205407 1.5791,1.182235 2.97052,2.876799 3.81091,4.985857 0.84338,2.149961 1.09427,4.588339 0.75674,7.052069 -0.30771,2.27292 -1.03459,4.48387 -2.01835,6.62807 -1.79177,3.93532 -4.33834,7.54849 -5.83198,11.40152 -1.70336,4.31819 -2.21443,9.28015 -1.26348,14.03761 0.91051,4.58014 3.18138,8.9649 6.45861,12.37291 -1.27209,1.22191 -2.54418,2.44383 -3.81628,3.66575 z"
       style="fill:#ffffff;fill-rule:evenodd;stroke:none;stroke-width:0.26458332px;stroke-linecap:butt;stroke-linejoin:miter;stroke-opacity:1;fill-opacity:1" />
    <path
       inkscape:label="#path1168"
       inkscape:export-ydpi="202"
       inkscape:export-xdpi="202"
       inkscape:export-filename="C:\Users\Famille SL\Desktop\Charly\Charly PrOgrAmMatIoN\Plant\Plant Logo.png"
       transform="translate(-4.5539553,1.8328782)"
       inkscape:original-d="m 179.91666,148.83338 c -1.76362,-8.81971 -3.52751,-17.63916 -5.29166,-26.45833 -1.76415,-8.81919 10.5836,-21.16694 15.875,-31.750005 5.2914,-10.583069 10.5836,-2.65e-4 15.875,0 5.2914,2.64e-4 -8.81918,5.291402 -13.22917,7.937501"
       inkscape:path-effect="#path-effect1170;#path-effect1178"
       inkscape:connector-curvature="0"
       id="t_stem2"
       d="m 178.11358,149.66203 c -3.97985,-8.66139 -5.74788,-18.12985 -5.32263,-27.35306 0.29288,-6.55112 1.71905,-12.8768 4.4393,-18.49863 2.95549,-6.11099 7.39293,-11.057122 12.60518,-14.231734 2.68391,-1.650673 5.61955,-2.766251 8.64346,-2.905237 1.60366,-0.06718 3.18613,0.170594 4.63457,0.715725 1.52855,0.575333 2.86897,1.504908 3.87992,2.681741 1.76581,2.072069 2.34258,4.757944 1.93661,7.065973 -0.4807,2.69205 -2.21157,4.765912 -4.13407,5.849492 -2.47434,1.38865 -5.14511,1.21519 -6.96919,0.50624 0,0 0,0 0,0 -4.42228,-1.72375 -4.68091,-4.929998 -4.68091,-4.929998 0,0 0.53486,3.130848 4.83584,4.492208 0,0 0,0 0,0 1.75784,0.55841 4.23265,0.53761 6.35574,-0.83265 1.64708,-1.05823 3.04712,-2.990555 3.31785,-5.277723 0.23731,-1.95329 -0.3953,-4.18973 -1.89863,-5.765126 -0.85913,-0.90978 -1.99938,-1.604257 -3.26931,-2.017288 -1.20722,-0.392806 -2.53444,-0.517676 -3.87965,-0.402796 -2.5474,0.205026 -5.04085,1.332837 -7.44309,2.912315 -4.65157,3.089715 -8.50978,7.79892 -11.05702,13.481398 -2.34808,5.24052 -3.48389,11.14175 -3.6485,17.28825 -0.21878,8.64982 1.54999,17.49166 5.26067,25.56357 -1.20204,0.55245 -2.40409,1.10489 -3.60614,1.65733 z"
       style="fill:#ffffff;fill-rule:evenodd;stroke:none;stroke-width:0.26458332px;stroke-linecap:butt;stroke-linejoin:miter;stroke-opacity:1;fill-opacity:1" />
  </g>
</svg>
