<?xml version="1.0" encoding="UTF-8" standalone="no"?>
<!-- Created with Inkscape (http://www.inkscape.org/) -->

<svg
   xmlns:dc="http://purl.org/dc/elements/1.1/"
   xmlns:cc="http://creativecommons.org/ns#"
   xmlns:rdf="http://www.w3.org/1999/02/22-rdf-syntax-ns#"
   xmlns:svg="http://www.w3.org/2000/svg"
   xmlns="http://www.w3.org/2000/svg"
   xmlns:sodipodi="http://sodipodi.sourceforge.net/DTD/sodipodi-0.dtd"
   xmlns:inkscape="http://www.inkscape.org/namespaces/inkscape"
   width="153.45833mm"
   height="139.91689mm"
   viewBox="0 0 153.45833 139.91689"
   version="1.1"
   id="svg8"
   inkscape:version="0.92.4 (5da689c313, 2019-01-14)"
   sodipodi:docname="wood_log.svg">
  <defs
     id="defs2">
    <filter
       style="color-interpolation-filters:sRGB"
       id="filter43"
       inkscape:label="filter0" />
  </defs>
  <sodipodi:namedview
     id="base"
     pagecolor="#474747"
     bordercolor="#666666"
     borderopacity="1.0"
     inkscape:pageopacity="0"
     inkscape:pageshadow="2"
     inkscape:zoom="0.45254834"
     inkscape:cx="316.94132"
     inkscape:cy="477.03417"
     inkscape:document-units="px"
     inkscape:current-layer="layer1"
     showgrid="true"
     fit-margin-top="0"
     fit-margin-left="0"
     fit-margin-right="0"
     fit-margin-bottom="0"
     inkscape:showpageshadow="false"
     borderlayer="true"
     inkscape:window-width="1359"
     inkscape:window-height="1008"
     inkscape:window-x="552"
     inkscape:window-y="0"
     inkscape:window-maximized="0"
     inkscape:snap-grids="true"
     inkscape:pagecheckerboard="false">
    <inkscape:grid
       type="xygrid"
       id="grid45"
       originx="-74.083329"
       originy="-33.876849" />
  </sodipodi:namedview>
  <metadata
     id="metadata5">
    <rdf:RDF>
      <cc:Work
         rdf:about="">
        <dc:format>image/svg+xml</dc:format>
        <dc:type
           rdf:resource="http://purl.org/dc/dcmitype/StillImage" />
        <dc:title></dc:title>
      </cc:Work>
    </rdf:RDF>
  </metadata>
  <g
     inkscape:label="Background"
     inkscape:groupmode="layer"
     id="layer1"
     transform="translate(72.760408,-12.345853)"
     sodipodi:insensitive="true"
     style="display:none">
    <path
       style="opacity:1;fill:#ffffff;fill-opacity:1;fill-rule:nonzero;stroke:none;stroke-width:3.4395833;stroke-linecap:round;stroke-linejoin:round;stroke-miterlimit:4;stroke-dasharray:none;stroke-dashoffset:0;stroke-opacity:1"
       d="M -146.84374,-4.3604197 H 191.82291 V 186.13958 h -338.66665 z"
       id="rect5735"
       inkscape:connector-curvature="0" />
  </g>
  <g
     inkscape:groupmode="layer"
     id="layer2"
     inkscape:label="Layer 1"
     transform="translate(-74.083332,-16.706273)">
    <path
       style="fill:#703f1c;fill-opacity:1;stroke:none;stroke-width:0.26458332px;stroke-linecap:butt;stroke-linejoin:miter;stroke-opacity:1"
       d="M 174.625,21.166666 C 148.4861,12.453697 132.29166,15.875 105.83333,37.041666 79.374999,58.208333 74.083332,79.374999 74.083332,89.958332 c 0,10.583338 0,37.041668 31.749998,52.916668 31.75,15.875 52.91667,15.875 74.08333,10.58333 21.16667,-5.29167 47.625,-37.04166 47.625,-68.791664 0,-31.75 -37.04166,-58.208333 -52.91666,-63.5 z"
       id="path4967"
       inkscape:connector-curvature="0"
       sodipodi:nodetypes="sssssss" />
    <path
       style="fill:#874716;fill-opacity:1;stroke:none;stroke-width:0.26458332px;stroke-linecap:butt;stroke-linejoin:miter;stroke-opacity:1"
       d="m 153.45833,31.75 c 0,0 -37.04166,0 -52.91666,26.458333 -15.875004,26.458333 -15.875004,31.749999 -10.583338,42.333337 5.291667,10.58333 0,37.04166 52.916668,47.62499 52.91666,10.58334 47.625,-15.875 63.5,-31.74999 15.875,-15.875 15.875,-37.041671 0,-58.208337 C 190.5,37.041666 153.45833,31.75 153.45833,31.75 Z"
       id="path5890"
       inkscape:connector-curvature="0" />
    <path
       style="fill:#d48855;fill-opacity:1;stroke:none;stroke-width:0.26458332px;stroke-linecap:butt;stroke-linejoin:miter;stroke-opacity:1"
       d="m 158.00586,41.093099 c -21.16667,0 -57.46419,17.115234 -62.755861,38.2819 C 89.958332,100.54167 111.125,127 121.70833,132.29166 c 10.58333,5.29167 37.04167,15.87501 52.91667,10.58334 7.9375,-2.64584 19.5957,-20.33984 22.15885,-27.20248 1.61436,-4.3223 16.78451,-21.001295 14.13868,-28.938797 C 205.63087,70.85872 181.00415,41.093099 158.00586,41.093099 Z"
       id="path5892"
       inkscape:connector-curvature="0"
       sodipodi:nodetypes="sssssss" />
    <path
       style="fill:#b06d3d;fill-opacity:1;stroke:none;stroke-width:0.26458332px;stroke-linecap:butt;stroke-linejoin:miter;stroke-opacity:1"
       d="M 155.52539,48.69987 C 142.36635,51.400863 127,63.499999 116.41667,74.083332 c -10.58334,10.583334 -15.875,21.166667 0,42.333338 15.87499,21.16666 37.04166,15.87499 47.62499,15.87499 10.58334,0 35.63529,-31.15686 31.75,-42.333328 -7.88347,-22.677681 -27.3297,-43.614218 -40.26627,-41.258462 z"
       id="path6437"
       inkscape:connector-curvature="0"
       sodipodi:nodetypes="cssssc" />
    <path
       style="fill:#d48855;fill-opacity:1;stroke:none;stroke-width:0.26458332px;stroke-linecap:butt;stroke-linejoin:miter;stroke-opacity:1"
       d="M 158.75,63.499999 C 143.7004,61.564524 127,74.083332 121.70833,89.958332 c -5.29166,15.874998 15.875,31.749998 26.45833,31.749998 10.58334,0 37.04167,-15.875 37.04167,-26.458331 0,-10.583333 -12.79445,-29.992738 -26.45833,-31.75 z"
       id="path6439"
       inkscape:connector-curvature="0"
       sodipodi:nodetypes="sssss" />
    <path
       style="fill:#b06d3d;fill-opacity:1;stroke:none;stroke-width:0.26458332px;stroke-linecap:butt;stroke-linejoin:miter;stroke-opacity:1"
       d="m 157.84322,80.529405 c -6.79125,-1.151674 -19.41271,2.368405 -11.47521,12.951739 7.9375,10.583336 12.67432,4.721918 15.32015,2.07608 2.64583,-2.645833 3.58433,-13.767949 -3.84494,-15.027819 z"
       id="path6441"
       inkscape:connector-curvature="0"
       sodipodi:nodetypes="ssss" />
  </g>
</svg>
