<?xml version="1.0" encoding="UTF-8" standalone="no"?>
<svg
   xmlns:dc="http://purl.org/dc/elements/1.1/"
   xmlns:cc="http://creativecommons.org/ns#"
   xmlns:rdf="http://www.w3.org/1999/02/22-rdf-syntax-ns#"
   xmlns:svg="http://www.w3.org/2000/svg"
   xmlns="http://www.w3.org/2000/svg"
   xmlns:sodipodi="http://sodipodi.sourceforge.net/DTD/sodipodi-0.dtd"
   xmlns:inkscape="http://www.inkscape.org/namespaces/inkscape"
   width="400"
   height="400"
   viewBox="0 0 105.83333 105.83334"
   version="1.1"
   id="svg8"
   inkscape:version="1.0 (4035a4fb49, 2020-05-01)"
   sodipodi:docname="tile-flower-player1-rand0.svg">
  <defs
     id="defs2" />
  <sodipodi:namedview
     id="base"
     pagecolor="#2b2b2b"
     bordercolor="#666666"
     borderopacity="1.0"
     inkscape:pageopacity="0"
     inkscape:pageshadow="2"
     inkscape:zoom="1.4"
     inkscape:cx="114.78651"
     inkscape:cy="112.61161"
     inkscape:document-units="mm"
     inkscape:current-layer="layer1"
     inkscape:document-rotation="0"
     showgrid="true"
     units="px"
     showguides="true"
     inkscape:guide-bbox="true"
     inkscape:window-width="1920"
     inkscape:window-height="1017"
     inkscape:window-x="-8"
     inkscape:window-y="-8"
     inkscape:window-maximized="1">
    <inkscape:grid
       type="xygrid"
       id="grid10"
       empcolor="#00a6ff"
       empopacity="0.25098039" />
    <sodipodi:guide
       position="52.916665,105.83334"
       orientation="1,0"
       id="guide12" />
    <sodipodi:guide
       position="0,52.91667"
       orientation="0,-1"
       id="guide14" />
  </sodipodi:namedview>
  <metadata
     id="metadata5">
    <rdf:RDF>
      <cc:Work
         rdf:about="">
        <dc:format>image/svg+xml</dc:format>
        <dc:type
           rdf:resource="http://purl.org/dc/dcmitype/StillImage" />
        <dc:title />
      </cc:Work>
    </rdf:RDF>
  </metadata>
  <g
     inkscape:label="Layer 1"
     inkscape:groupmode="layer"
     id="layer1">
    <path
       sodipodi:nodetypes="ccccc"
       id="path836"
       d="M 52.916663,7.9374999 C 44.979167,13.229167 37.041668,34.395834 37.041667,55.5625 L 52.916664,63.5 68.791667,55.5625 c 10e-7,-21.166666 -7.9375,-42.333333 -15.875004,-47.6250001 z"
       style="fill:#ffffff;fill-opacity:1;stroke:none;stroke-width:0.264583px;stroke-linecap:butt;stroke-linejoin:miter;stroke-opacity:1" />
    <path
       sodipodi:nodetypes="cccc"
       id="path839"
       d="M 52.916666,60.854166 C 55.5625,47.625 52.916667,13.229167 79.374999,7.9374999 76.729167,13.229167 84.666667,37.041667 76.729166,47.624999 71.4375,52.916664 66.145833,60.854167 52.916666,60.854166 Z"
       style="fill:#dfdfdf;fill-opacity:1;stroke:none;stroke-width:0.264583px;stroke-linecap:butt;stroke-linejoin:miter;stroke-opacity:1" />
    <path
       sodipodi:nodetypes="cccc"
       id="path841"
       d="M 52.916663,60.854166 C 39.6875,60.854167 34.395833,52.916667 29.104166,47.624999 21.166667,37.041667 29.104167,13.229167 26.458333,7.9374999 52.916664,13.229167 50.270833,47.625 52.916663,60.854166 Z"
       style="fill:#dddddd;fill-opacity:1;stroke:none;stroke-width:0.264583px;stroke-linecap:butt;stroke-linejoin:miter;stroke-opacity:1" />
    <path
       sodipodi:nodetypes="ccccccc"
       id="path834"
       d="M 52.916664,76.729167 C 52.916664,66.145834 58.208334,66.145833 63.5,63.5 68.791667,60.854166 76.729167,50.270833 76.729167,47.625 74.083334,50.270833 66.145833,58.208333 52.916663,58.208332 39.6875,58.208333 31.750001,50.270833 29.104167,47.625 c 0,2.645833 7.937499,13.229166 13.229166,15.875 5.291667,2.645833 10.583331,2.645834 10.583331,13.229167 z"
       style="fill:#595959;fill-opacity:1;stroke:none;stroke-width:0.264583px;stroke-linecap:butt;stroke-linejoin:miter;stroke-opacity:1" />
  </g>
</svg>
