<?xml version="1.0" encoding="UTF-8" standalone="no"?>
<svg
   xmlns:dc="http://purl.org/dc/elements/1.1/"
   xmlns:cc="http://creativecommons.org/ns#"
   xmlns:rdf="http://www.w3.org/1999/02/22-rdf-syntax-ns#"
   xmlns:svg="http://www.w3.org/2000/svg"
   xmlns="http://www.w3.org/2000/svg"
   xmlns:sodipodi="http://sodipodi.sourceforge.net/DTD/sodipodi-0.dtd"
   xmlns:inkscape="http://www.inkscape.org/namespaces/inkscape"
   sodipodi:docname="tile-u1-d1-l1-r0-player2-rand0.svg"
   inkscape:version="1.0 (4035a4fb49, 2020-05-01)"
   id="svg8"
   version="1.1"
   viewBox="0 0 105.83333 105.83334"
   height="400"
   width="400">
  <title
     id="title17">Plant texture</title>
  <defs
     id="defs2" />
  <sodipodi:namedview
     inkscape:window-maximized="0"
     inkscape:window-y="0"
     inkscape:window-x="0"
     inkscape:window-height="1008"
     inkscape:window-width="958"
     inkscape:guide-bbox="true"
     showguides="true"
     units="px"
     showgrid="true"
     inkscape:document-rotation="0"
     inkscape:current-layer="layer1"
     inkscape:document-units="mm"
     inkscape:cy="197.54728"
     inkscape:cx="239.067"
     inkscape:zoom="1.4"
     inkscape:pageshadow="2"
     inkscape:pageopacity="0"
     borderopacity="1.0"
     bordercolor="#666666"
     pagecolor="#2b2b2b"
     id="base">
    <inkscape:grid
       empopacity="0.25098039"
       empcolor="#00a6ff"
       id="grid10"
       type="xygrid" />
    <sodipodi:guide
       id="guide12"
       orientation="1,0"
       position="52.916665,105.83334" />
    <sodipodi:guide
       id="guide14"
       orientation="0,-1"
       position="0,52.91667" />
  </sodipodi:namedview>
  <metadata
     id="metadata5">
    <rdf:RDF>
      <cc:Work
         rdf:about="">
        <dc:format>image/svg+xml</dc:format>
        <dc:type
           rdf:resource="http://purl.org/dc/dcmitype/StillImage" />
        <dc:title>Plant texture</dc:title>
        <dc:date>2021</dc:date>
        <dc:creator>
          <cc:Agent>
            <dc:title>Picorims(picorims.contact@gmail.com)</dc:title>
          </cc:Agent>
        </dc:creator>
        <dc:rights>
          <cc:Agent>
            <dc:title>Plant textures by Picorims(picorims.contact@gmail.com) are licensed under CC BY-NC-ND 4.0. To view a copy of this license, visit https://creativecommons.org/licenses/by-nc-nd/4.0</dc:title>
          </cc:Agent>
        </dc:rights>
        <cc:license
           rdf:resource="http://creativecommons.org/licenses/by-nc-nd/4.0/" />
      </cc:Work>
      <cc:License
         rdf:about="http://creativecommons.org/licenses/by-nc-nd/4.0/">
        <cc:permits
           rdf:resource="http://creativecommons.org/ns#Reproduction" />
        <cc:permits
           rdf:resource="http://creativecommons.org/ns#Distribution" />
        <cc:requires
           rdf:resource="http://creativecommons.org/ns#Notice" />
        <cc:requires
           rdf:resource="http://creativecommons.org/ns#Attribution" />
        <cc:prohibits
           rdf:resource="http://creativecommons.org/ns#CommercialUse" />
      </cc:License>
    </rdf:RDF>
  </metadata>
  <g
     id="layer1"
     inkscape:groupmode="layer"
     inkscape:label="Layer 1">
    <path
       sodipodi:nodetypes="csscsscc"
       id="path836-2"
       d="m 66.120201,62.731979 c 0,0 6.599868,3.527778 9.131779,2.759755 2.531911,-0.768022 5.063824,-1.536046 10.61717,3.099147 5.745251,4.795369 9.950459,10.016097 17.31835,16.075786 C 96.587631,81.138889 88.703228,80.571787 81.985706,77.273551 75.024137,73.85549 74.256114,71.32358 73.488091,68.791668 72.720069,66.259757 64.356312,66.031913 64.356312,66.031913 Z"
       style="fill:#666666;fill-opacity:1;stroke:none;stroke-width:0.264583px;stroke-linecap:butt;stroke-linejoin:miter;stroke-opacity:1" />
    <path
       style="fill:#666666;fill-opacity:1;stroke:none;stroke-width:0.264583px;stroke-linecap:butt;stroke-linejoin:miter;stroke-opacity:1"
       d="m 50.511508,85.351219 c 0,0 -7.015444,2.605194 -9.420602,1.502631 -2.405159,-1.102562 -4.559768,-2.298169 -10.687648,1.545493 -6.339639,3.976487 -11.461244,8.675242 -17.174091,14.788157 8.118005,-5.010352 12.656625,-3.549645 19.757681,-5.911522 7.359037,-2.447685 8.304091,-4.509248 9.406654,-6.914407 1.102562,-2.405158 9.420603,-1.502629 9.420603,-1.502629 z"
       id="path836-0"
       sodipodi:nodetypes="csscsscc" />
    <path
       style="fill:#666666;fill-opacity:1;stroke:none;stroke-width:0.264583px;stroke-linecap:butt;stroke-linejoin:miter;stroke-opacity:1"
       d="m 44.979166,42.333333 c 0,0 -5.291667,5.291668 -7.9375,5.291668 -2.645833,0 -5.10268,-0.188989 -9.071429,5.85863 -4.105895,6.256604 -6.803571,12.662202 -9.449404,20.599702 5.291666,-7.9375 10.026138,-8.500982 15.497023,-13.607143 5.669642,-5.291667 5.669643,-7.559523 5.669643,-10.205357 0,-2.645832 7.937501,-5.291666 7.937501,-5.291666 z"
       id="path836-0-9"
       sodipodi:nodetypes="csscsscc" />
    <path
       sodipodi:nodetypes="cssc"
       id="path16"
       d="m 52.916663,105.83333 c 3e-6,-10.583331 7.937503,-29.104164 7.937503,-37.041664 C 60.854167,55.5625 46.971632,42.336339 47.247023,31.183035 47.625,15.875 52.916667,15.875 52.916663,0"
       style="fill:none;stroke:#8c8c8c;stroke-width:15;stroke-linecap:round;stroke-linejoin:miter;stroke-opacity:1;stroke-miterlimit:4;stroke-dasharray:none" />
    <path
       sodipodi:nodetypes="csscsscc"
       id="path836"
       d="m 58.208333,5.291666 c 0,0 5.291667,5.291667 7.9375,5.291667 2.645833,0 5.291668,-10e-7 9.260417,6.047619 4.105895,6.256604 6.614586,12.473214 11.906253,20.410714 C 82.020836,31.749999 74.640528,28.91866 69.169643,23.812499 63.500001,18.520832 63.5,15.875 63.5,13.229166 63.5,10.583333 55.5625,7.9375 55.5625,7.9375 Z"
       style="fill:#666666;fill-opacity:1;stroke:none;stroke-width:0.264583px;stroke-linecap:butt;stroke-linejoin:miter;stroke-opacity:1" />
    <path
       sodipodi:nodetypes="csscsscc"
       id="path836-0-9-9"
       d="m 38.564225,19.011402 c 0,0 -6.906091,-1.241155 -8.342246,-3.39642 C 28.785824,13.459717 27.596315,11.348777 20.83205,11.623737 13.834035,11.908199 7.4868233,13.426203 0,15.875 c 8.9229783,-0.293532 11.92238,3.236272 18.784339,4.731017 7.111255,1.54905 8.840017,0.233605 10.856907,-1.301083 2.016888,-1.534687 8.342244,3.396421 8.342244,3.396421 z"
       style="fill:#666666;fill-opacity:1;stroke:none;stroke-width:0.255949px;stroke-linecap:butt;stroke-linejoin:miter;stroke-opacity:1" />
    <path
       id="path834"
       d="M 52.916663,0 C 52.916663,18.520833 23.8125,52.916663 0,52.916663"
       style="fill:none;stroke:#8c8c8c;stroke-width:15;stroke-linecap:round;stroke-linejoin:miter;stroke-opacity:1;font-variation-settings:normal;opacity:1;vector-effect:none;fill-opacity:1;stroke-miterlimit:4;stroke-dasharray:none;stroke-dashoffset:0;stop-color:#000000;stop-opacity:1" />
  </g>
</svg>
