<?xml version="1.0" encoding="UTF-8" standalone="no"?>
<svg
   xmlns:dc="http://purl.org/dc/elements/1.1/"
   xmlns:cc="http://creativecommons.org/ns#"
   xmlns:rdf="http://www.w3.org/1999/02/22-rdf-syntax-ns#"
   xmlns:svg="http://www.w3.org/2000/svg"
   xmlns="http://www.w3.org/2000/svg"
   xmlns:sodipodi="http://sodipodi.sourceforge.net/DTD/sodipodi-0.dtd"
   xmlns:inkscape="http://www.inkscape.org/namespaces/inkscape"
   width="400"
   height="400"
   viewBox="0 0 105.83333 105.83334"
   version="1.1"
   id="svg8"
   inkscape:version="1.0 (4035a4fb49, 2020-05-01)"
   sodipodi:docname="tile-u1-d1-l0-r1-player1-rand0.svg">
  <defs
     id="defs2" />
  <sodipodi:namedview
     id="base"
     pagecolor="#2b2b2b"
     bordercolor="#666666"
     borderopacity="1.0"
     inkscape:pageopacity="0"
     inkscape:pageshadow="2"
     inkscape:zoom="1.2535632"
     inkscape:cx="239.067"
     inkscape:cy="197.54728"
     inkscape:document-units="mm"
     inkscape:current-layer="layer1"
     inkscape:document-rotation="0"
     showgrid="true"
     units="px"
     showguides="true"
     inkscape:guide-bbox="true"
     inkscape:window-width="958"
     inkscape:window-height="1008"
     inkscape:window-x="953"
     inkscape:window-y="0"
     inkscape:window-maximized="0">
    <inkscape:grid
       type="xygrid"
       id="grid10"
       empcolor="#00a6ff"
       empopacity="0.25098039" />
    <sodipodi:guide
       position="52.916665,105.83334"
       orientation="1,0"
       id="guide12" />
    <sodipodi:guide
       position="0,52.91667"
       orientation="0,-1"
       id="guide14" />
  </sodipodi:namedview>
  <metadata
     id="metadata5">
    <rdf:RDF>
      <cc:Work
         rdf:about="">
        <dc:format>image/svg+xml</dc:format>
        <dc:type
           rdf:resource="http://purl.org/dc/dcmitype/StillImage" />
        <dc:title />
      </cc:Work>
    </rdf:RDF>
  </metadata>
  <g
     inkscape:label="Layer 1"
     inkscape:groupmode="layer"
     id="layer1">
    <path
       sodipodi:nodetypes="csscsscc"
       id="path834-2"
       d="m 60.854167,50.270833 c 0,0 2.645833,-5.291667 5.291666,-5.291667 2.645834,0 10.583334,0 21.544643,-9.638394 9.93471,-8.735696 12.851194,-24.757439 12.851194,-24.757439 0,0 -13.040181,0.944939 -23.623514,11.528272 C 66.334823,32.694938 63.5,39.6875 63.5,42.333333 c 3e-6,2.645833 -5.291664,5.291667 -5.291664,5.291667 z"
       style="fill:#4d4d4d;fill-opacity:1;stroke:none;stroke-width:0.264583px;stroke-linecap:butt;stroke-linejoin:miter;stroke-opacity:1" />
    <path
       style="fill:none;stroke:#8c8c8c;stroke-width:15;stroke-linecap:round;stroke-linejoin:miter;stroke-opacity:1;stroke-miterlimit:4;stroke-dasharray:none"
       d="m 52.916663,105.83333 c 3e-6,-10.583331 7.937503,-29.104164 7.937503,-37.041664 C 60.854167,55.5625 46.971632,42.336339 47.247023,31.183035 47.625,15.875 52.916667,15.875 52.916663,0"
       id="path16"
       sodipodi:nodetypes="cssc" />
    <path
       style="fill:#4d4d4d;fill-opacity:1;stroke:none;stroke-width:0.264583px;stroke-linecap:butt;stroke-linejoin:miter;stroke-opacity:1"
       d="m 47.625,97.895833 c 0,0 -2.645833,-5.291667 -5.291666,-5.291667 -2.645834,0 -10.96131,-1.700895 -21.544643,-9.638394 C 10.205358,75.028272 5.2916675,58.208333 5.2916675,58.208333 c 0,0 15.6860105,0.944939 26.2693435,11.528272 10.583333,10.583333 13.418156,17.575895 13.418156,20.221728 -3e-6,2.645833 5.291664,5.291667 5.291664,5.291667 z"
       id="path834-3"
       sodipodi:nodetypes="csscsscc" />
    <path
       style="fill:none;stroke:#8c8c8c;stroke-width:15;stroke-linecap:round;stroke-linejoin:miter;stroke-opacity:1;font-variation-settings:normal;opacity:1;vector-effect:none;fill-opacity:1;stroke-miterlimit:4;stroke-dasharray:none;stroke-dashoffset:0;stop-color:#000000;stop-opacity:1"
       d="m 52.916663,105.83333 c 0,-18.520831 26.458336,-52.916667 52.916667,-52.916667"
       id="path834" />
  </g>
</svg>
