<?xml version="1.0" encoding="UTF-8" standalone="no"?>
<svg
   xmlns:dc="http://purl.org/dc/elements/1.1/"
   xmlns:cc="http://creativecommons.org/ns#"
   xmlns:rdf="http://www.w3.org/1999/02/22-rdf-syntax-ns#"
   xmlns:svg="http://www.w3.org/2000/svg"
   xmlns="http://www.w3.org/2000/svg"
   xmlns:sodipodi="http://sodipodi.sourceforge.net/DTD/sodipodi-0.dtd"
   xmlns:inkscape="http://www.inkscape.org/namespaces/inkscape"
   width="400"
   height="400"
   viewBox="0 0 105.83333 105.83334"
   version="1.1"
   id="svg8"
   inkscape:version="1.0 (4035a4fb49, 2020-05-01)"
   sodipodi:docname="tile-u0-d0-l0-r1-player2-rand0.svg">
  <defs
     id="defs2" />
  <sodipodi:namedview
     id="base"
     pagecolor="#2b2b2b"
     bordercolor="#666666"
     borderopacity="1.0"
     inkscape:pageopacity="0"
     inkscape:pageshadow="2"
     inkscape:zoom="1.4"
     inkscape:cx="217.80687"
     inkscape:cy="100.53565"
     inkscape:document-units="mm"
     inkscape:current-layer="layer1"
     inkscape:document-rotation="0"
     showgrid="true"
     units="px"
     showguides="true"
     inkscape:guide-bbox="true"
     inkscape:window-width="958"
     inkscape:window-height="1008"
     inkscape:window-x="953"
     inkscape:window-y="0"
     inkscape:window-maximized="0">
    <inkscape:grid
       type="xygrid"
       id="grid10"
       empcolor="#00a6ff"
       empopacity="0.25098039" />
    <sodipodi:guide
       position="52.916665,105.83334"
       orientation="1,0"
       id="guide12" />
    <sodipodi:guide
       position="0,52.91667"
       orientation="0,-1"
       id="guide14" />
  </sodipodi:namedview>
  <metadata
     id="metadata5">
    <rdf:RDF>
      <cc:Work
         rdf:about="">
        <dc:format>image/svg+xml</dc:format>
        <dc:type
           rdf:resource="http://purl.org/dc/dcmitype/StillImage" />
        <dc:title />
      </cc:Work>
    </rdf:RDF>
  </metadata>
  <g
     inkscape:label="Layer 1"
     inkscape:groupmode="layer"
     id="layer1">
    <path
       sodipodi:nodetypes="csscsscc"
       id="path836-0"
       d="m 97.895833,48.947917 c 0,0 -5.291673,-5.291668 -7.937506,-5.291668 -2.645833,0 -5.10268,0.188989 -9.071429,-5.85863 -4.105895,-6.256604 -4.157725,-12.662202 -9.449398,-20.599702 5.291673,5.291667 9.648156,7.367053 15.119041,12.473214 5.669642,5.291667 6.047619,8.693452 6.047619,11.339286 0,2.645832 7.9375,5.291666 7.9375,5.291666 z"
       style="fill:#666666;fill-opacity:1;stroke:none;stroke-width:0.264583px;stroke-linecap:butt;stroke-linejoin:miter;stroke-opacity:1" />
    <path
       style="fill:#666666;fill-opacity:1;stroke:none;stroke-width:0.264583px;stroke-linecap:butt;stroke-linejoin:miter;stroke-opacity:1"
       d="m 75.40625,59.53125 c 0,0 -5.291667,5.291667 -7.9375,5.291667 -2.645833,0 -3.590776,-10e-7 -7.559525,6.047619 -4.105895,6.256604 -4.346722,11.150298 -9.638392,16.441964 7.937503,-5.291666 9.648163,-5.855148 15.119048,-10.961309 5.669642,-5.291667 4.724702,-6.236607 4.724702,-8.882441 0,-2.645833 7.9375,-5.291666 7.9375,-5.291666 z"
       id="path836"
       sodipodi:nodetypes="csscsscc" />
    <path
       style="fill:#666666;fill-opacity:1;stroke:none;stroke-width:0.264583px;stroke-linecap:butt;stroke-linejoin:miter;stroke-opacity:1"
       d="m 42.333333,50.270833 c 0,0 -5.291673,-5.291671 -7.937506,-5.291668 -1.322911,10e-7 -3.968744,-1.322915 -5.291667,-3.968749 -2.521423,-5.042823 -1.322911,-3.96875 -6.614577,-11.90625 5.291666,5.291667 6.224306,3.445256 11.906244,8.315477 2.645839,2.267857 2.645839,3.590773 2.645833,4.91369 -1.2e-5,2.645832 7.937503,5.291667 7.937503,5.291667 z"
       id="path836-0-6"
       sodipodi:nodetypes="csscsscc" />
    <path
       sodipodi:nodetypes="csc"
       id="path834"
       d="m 44.979167,50.270833 c 10.583333,0 24.75744,5.291666 35.340773,5.291667 6.99256,0 17.575892,-2.645837 25.51339,-2.645837"
       style="font-variation-settings:normal;opacity:1;vector-effect:none;fill:none;fill-opacity:1;stroke:#8c8c8c;stroke-width:15;stroke-linecap:round;stroke-linejoin:miter;stroke-miterlimit:4;stroke-dasharray:none;stroke-dashoffset:0;stroke-opacity:1;stop-color:#000000;stop-opacity:1" />
  </g>
</svg>
