<?xml version="1.0" encoding="UTF-8" standalone="no"?>
<svg
   xmlns:dc="http://purl.org/dc/elements/1.1/"
   xmlns:cc="http://creativecommons.org/ns#"
   xmlns:rdf="http://www.w3.org/1999/02/22-rdf-syntax-ns#"
   xmlns:svg="http://www.w3.org/2000/svg"
   xmlns="http://www.w3.org/2000/svg"
   xmlns:sodipodi="http://sodipodi.sourceforge.net/DTD/sodipodi-0.dtd"
   xmlns:inkscape="http://www.inkscape.org/namespaces/inkscape"
   sodipodi:docname="tile-u1-d1-l0-r0-player1-rand0.svg"
   inkscape:version="1.0 (4035a4fb49, 2020-05-01)"
   id="svg8"
   version="1.1"
   viewBox="0 0 105.83333 105.83334"
   height="400"
   width="400">
  <defs
     id="defs2" />
  <sodipodi:namedview
     inkscape:window-maximized="1"
     inkscape:window-y="-8"
     inkscape:window-x="-8"
     inkscape:window-height="1017"
     inkscape:window-width="1920"
     inkscape:guide-bbox="true"
     showguides="true"
     units="px"
     showgrid="true"
     inkscape:document-rotation="0"
     inkscape:current-layer="layer1"
     inkscape:document-units="mm"
     inkscape:cy="226.02739"
     inkscape:cx="143.4185"
     inkscape:zoom="1.4"
     inkscape:pageshadow="2"
     inkscape:pageopacity="0"
     borderopacity="1.0"
     bordercolor="#666666"
     pagecolor="#2b2b2b"
     id="base">
    <inkscape:grid
       empopacity="0.25098039"
       empcolor="#00a6ff"
       id="grid10"
       type="xygrid" />
    <sodipodi:guide
       id="guide12"
       orientation="1,0"
       position="52.916665,105.83334" />
    <sodipodi:guide
       id="guide14"
       orientation="0,-1"
       position="0,52.91667" />
  </sodipodi:namedview>
  <metadata
     id="metadata5">
    <rdf:RDF>
      <cc:Work
         rdf:about="">
        <dc:format>image/svg+xml</dc:format>
        <dc:type
           rdf:resource="http://purl.org/dc/dcmitype/StillImage" />
        <dc:title />
      </cc:Work>
    </rdf:RDF>
  </metadata>
  <g
     id="layer1"
     inkscape:groupmode="layer"
     inkscape:label="Layer 1">
    <path
       sodipodi:nodetypes="csscsscc"
       id="path834"
       d="m 47.625,92.604167 c 0,0 -2.645834,-5.291667 -5.291667,-5.291667 -2.645833,0 -10.961309,-1.700893 -21.544642,-9.638393 C 10.205358,69.736607 5.2916674,52.916668 5.2916674,52.916668 c 0,0 15.6860106,0.944939 26.2693436,11.528272 10.583333,10.583333 13.418156,17.575894 13.418155,20.221727 -10e-7,2.645834 5.291664,5.291666 5.291664,5.291666 z"
       style="fill:#4d4d4d;fill-opacity:1;stroke:none;stroke-width:0.264583px;stroke-linecap:butt;stroke-linejoin:miter;stroke-opacity:1" />
    <path
       style="fill:#4d4d4d;fill-opacity:1;stroke:none;stroke-width:0.264583px;stroke-linecap:butt;stroke-linejoin:miter;stroke-opacity:1"
       d="m 58.208333,50.270833 c 0,0 2.645833,-5.291667 5.291666,-5.291667 2.645834,0 10.583334,10e-7 21.544643,-9.638394 9.93471,-8.735696 12.851191,-24.757439 12.851191,-24.757439 0,0 -13.040178,0.944939 -23.623511,11.528272 C 63.688989,32.694938 60.854166,39.6875 60.854166,42.333333 c 3e-6,2.645833 -5.291664,5.291667 -5.291664,5.291667 z"
       id="path834-2"
       sodipodi:nodetypes="csscsscc" />
    <path
       sodipodi:nodetypes="cssc"
       id="path16"
       d="m 52.916663,105.83333 c 10e-7,-13.229163 5.614002,-24.158858 5.291669,-33.828866 C 57.641368,54.995533 47.058036,51.026786 47.624999,31.938988 48.001315,19.269687 52.916667,15.875 52.916663,0"
       style="fill:none;stroke:#8c8c8c;stroke-width:15;stroke-linecap:round;stroke-linejoin:miter;stroke-miterlimit:4;stroke-dasharray:none;stroke-opacity:1" />
  </g>
</svg>
